<?xml version="1.0" encoding="UTF-8" standalone="no"?><!DOCTYPE svg PUBLIC "-//W3C//DTD SVG 1.1//EN" "http://www.w3.org/Graphics/SVG/1.1/DTD/svg11.dtd"><svg width="100%" height="100%" viewBox="0 0 2303 2303" version="1.1" xmlns="http://www.w3.org/2000/svg" xmlns:xlink="http://www.w3.org/1999/xlink" xml:space="preserve" xmlns:serif="http://www.serif.com/" style="fill-rule:evenodd;clip-rule:evenodd;stroke-linejoin:round;stroke-miterlimit:1.5;"><path id="Orang" d="M2302.37,575.592l0,1151.185c0,317.678 -257.914,575.592 -575.592,575.592l-1151.185,0c-317.678,0 -575.592,-257.914 -575.592,-575.592l0,-1151.185c0,-317.678 257.914,-575.592 575.592,-575.592l1151.185,0c317.678,0 575.592,257.914 575.592,575.592Z" style="fill:#e79e15;"/><g id="Smiley"><path d="M652.123,1610.762c116.448,82.632 299.982,149.718 499.062,149.718c199.08,0 382.614,-67.087 499.062,-149.718c0,275.44 -223.622,499.062 -499.062,499.062c-275.44,0 -499.062,-223.622 -499.062,-499.062Z"/><path d="M652.123,1610.762c116.448,82.632 299.982,149.718 499.062,149.718c199.08,0 382.614,-67.087 499.062,-149.718c0,275.44 -223.622,499.062 -499.062,499.062c-275.44,0 -499.062,-223.622 -499.062,-499.062Z" style="fill:#fff;"/><g><path d="M1622.119,278.36c0,0 -32.734,0.018 -79.051,0.043c-184.996,0.102 -344.618,129.808 -382.568,310.87c-79.313,379.545 -172.987,868.636 -510.082,868.636c-122.145,0 -200.631,-51.039 -250.225,-125.085c-73.04,-108.666 -80.111,-248.781 -18.381,-364.248c61.73,-115.467 182.171,-187.412 313.103,-187.032c176.239,-0.046 310.797,0.113 586.967,-0.428" style="fill:none;stroke:#fff;stroke-width:208.33px;"/><path d="M1727.981,546.74l234.375,234.375l-234.375,234.375" style="fill:none;stroke:#fff;stroke-width:208.33px;stroke-linecap:round;stroke-linejoin:miter;stroke-miterlimit:10;"/><path d="M1281.882,781.115l680.474,0" style="fill:none;stroke:#fff;stroke-width:208.33px;stroke-linecap:round;"/></g></g></svg>